<svg width="148" height="36" viewBox="0 0 148 36" fill="none" xmlns="http://www.w3.org/2000/svg">
<g clip-path="url(#clip0_313_1458)">
<path fill-rule="evenodd" clip-rule="evenodd" d="M54.8567 21.2484C54.7859 22.402 54.6008 23.3585 54.4512 24.4877C54.2217 26.2209 54.666 26.108 53.1079 26.4431C51.3462 26.8219 48.8251 27.0878 47.4912 25.8733C46.8641 25.3024 46.6442 24.1005 47.0486 23.1183C47.3608 22.3599 48.1214 21.8602 48.8274 21.588C50.584 20.9109 52.9272 20.9583 54.8567 21.2484ZM93.2775 29.8749C93.5192 29.4948 94.524 26.4482 94.6095 25.8381C91.9667 26.072 90.175 27.2376 87.3938 25.7686C82.6917 23.2849 83.891 14.1874 92.0929 14.5625C93.7078 14.6363 94.4879 15.2119 95.7178 15.3449L96.8949 11.7948C94.8378 11.244 93.9334 10.8121 91.3986 10.7812C85.8971 10.714 81.3077 12.7414 79.6763 18.7125C78.5627 22.7885 79.9632 26.535 82.4178 28.4232C85.6362 30.899 89.0038 30.3137 93.2775 29.8749ZM79.393 11.8165C76.453 10.4538 71.3639 10.3612 68.2571 11.6488C61.4372 14.4753 59.6486 24.2401 64.9933 28.4297C67.5027 30.3969 72.2568 30.804 75.7827 29.8355C76.1455 29.6229 77.1351 26.1682 77.172 25.7787C75.1184 26.0754 72.4858 27.1885 69.7993 25.6768C65.9301 23.4996 66.4842 17.0163 71.0266 15.118C74.4497 13.6875 77.0077 15.2759 78.3093 15.3336L79.393 11.8165ZM116.136 25.5179L114.926 29.0546C117.787 30.3777 122.209 30.6694 125.499 29.7695C128.411 28.973 131.148 26.179 129.809 22.4615C128.725 19.4506 124.272 18.8169 122.973 17.067C122.392 16.2837 122.703 15.4318 123.236 14.9695C123.849 14.4388 124.708 14.2854 125.67 14.2664C128.709 14.2063 129.832 15.2638 130.751 15.2881C130.943 14.8337 131.835 12.22 131.829 11.7656C119.252 8.17628 116.155 15.3551 118.397 18.8989C119.159 20.1021 120.335 20.8119 121.704 21.5636C122.645 22.0801 124.862 22.99 125.005 24.2464C125.226 26.1893 122.966 26.5362 121.249 26.5525C117.911 26.5843 117.246 25.5879 116.136 25.5179ZM146.953 15.218C147.263 14.691 148.072 12.3143 147.995 11.7064C145.123 10.6974 140.543 10.2886 137.728 11.4763C134.084 13.0142 133.038 16.6791 134.761 19.1125C136.684 21.8274 141.436 22.2883 141.255 24.6426C141.073 27.0045 136.44 26.7957 134.615 26.2351C133.985 26.0413 132.918 25.5677 132.443 25.4945C132.03 25.993 131.304 28.3815 131.256 29.1877C134.577 30.0091 138.085 30.9923 141.903 29.7135C145.456 28.5235 147.326 25.3193 146.024 22.388C144.697 19.4006 140.003 18.4085 139.162 17.0537C137.99 15.1668 140.404 14.2631 141.973 14.238C144.87 14.1918 145.961 15.2611 146.953 15.218ZM102.139 18.6951C102.354 13.8412 110.611 11.8148 110.824 17.4166C110.854 18.2169 110.961 18.5828 110.348 18.7027L102.139 18.6951ZM112.518 25.6525C111.923 25.6586 110.087 26.2696 109.236 26.4446C105.845 27.1424 101.059 26.7549 101.46 21.8566L113.787 21.84C115.045 21.8369 114.904 21.9562 115.037 20.6159C115.27 18.2641 115.468 16.1822 114.23 14.0614C111.463 9.31961 103.039 9.38411 98.8464 14.8941C94.5853 20.4952 96.169 29.9062 104.521 30.3302C106.776 30.4447 108.291 30.2125 110.317 29.7861C111.6 29.5161 111.368 29.2692 111.762 28.061C112.002 27.3275 112.43 26.4089 112.518 25.6525ZM44.6341 15.3757C45.6544 15.2129 46.7327 14.7834 47.7808 14.5853C50.5719 14.058 56.024 13.5464 55.2115 18.1169C51.2508 18.0411 48.7212 17.7185 45.3694 19.2056C43.0912 20.2164 40.8148 22.9046 42.1302 26.382C44.4033 32.3911 55.8059 30.2898 58.5586 28.3343C58.9702 25.7185 59.2879 23.3446 59.6671 20.8276C60.0864 18.0434 60.3629 15.9103 58.9721 13.7495C56.5986 10.0617 50.4407 10.4282 46.6257 11.2794C46.415 11.3264 46.4259 11.3176 46.1992 11.4006C45.4571 11.6723 44.7282 14.4604 44.6341 15.3757Z" fill="#003883"/>
<path fill-rule="evenodd" clip-rule="evenodd" d="M9.28303 11.8115C5.99544 11.9124 7.32141 11.3199 5.44184 13.0912C4.11897 14.3379 2.86199 15.6478 1.57694 16.9316C1.14269 17.3654 0.720831 17.7597 0.281147 18.19C-0.258284 18.7178 0.00126278 18.723 0.864981 19.5893C2.01111 20.7389 3.7201 22.3215 4.7478 23.4117C6.30416 25.0629 8.3091 26.9305 9.91944 28.5418C10.776 29.3988 11.6144 30.2888 12.478 31.1341L16.3373 34.9379C16.6655 35.2653 16.8755 34.9382 17.0794 34.7328C17.3084 34.5021 17.5085 34.3027 17.7391 34.0728C18.6091 33.2055 19.4667 32.3846 20.3335 31.5162C20.7579 31.0909 21.165 30.6496 21.593 30.2217C22.0368 29.7781 22.457 29.3776 22.9018 28.9337L26.7612 25.1305C26.9764 24.9159 27.1706 24.6892 27.3838 24.4761L30.6473 21.2691C31.0831 20.8332 31.4966 20.4367 31.9346 20.0021L33.2096 18.6707C33.2797 18.4276 32.38 17.6797 32.1365 17.4354L14.8666 0.223814C14.7592 0.114898 14.7016 -0.0125664 14.5283 0.000996838L14.5001 2.41161C14.5224 2.67243 14.709 2.7608 14.8387 2.89124C14.9801 3.0333 15.0893 3.17408 15.2272 3.31138L16.4492 4.51597C17.5391 5.60353 18.6265 6.63368 19.7136 7.72211C20.2525 8.26165 20.7782 8.81859 21.3143 9.35671L25.3965 13.3628C25.6728 13.6388 25.9311 13.9309 26.2098 14.2097C26.7512 14.7513 27.2849 15.2912 27.8471 15.8076C28.5506 16.4537 29.5425 17.4828 30.2923 18.2155C30.7465 18.6594 30.4599 18.7967 30.1272 19.1313C29.5823 19.6793 29.0373 20.1831 28.4902 20.7296C27.9602 21.2591 27.4574 21.8267 26.8884 22.3625C24.9399 24.1974 23.0734 26.1337 21.183 28.0237L17.1219 32.0508C16.759 32.4148 16.6465 32.6241 16.2041 32.1759L12.157 28.1347C11.6195 27.5974 11.0764 27.0483 10.5226 26.5332C9.96796 26.0174 9.44378 25.4265 8.89842 24.8802C8.35164 24.3324 7.80307 23.8317 7.25983 23.2834L5.62947 21.6777C5.07253 21.1647 4.57262 20.5756 4.02368 20.0492C3.73575 19.7731 3.49024 19.529 3.20413 19.251C2.94607 19.0002 2.44404 18.7385 2.81432 18.3397C3.08085 18.0526 3.35466 17.8197 3.63302 17.5404L8.90213 12.2946C8.98625 12.2101 9.0256 12.1655 9.12111 12.0878C9.24368 11.9879 9.26538 12.0122 9.28303 11.8115Z" fill="#FF8200"/>
<path fill-rule="evenodd" clip-rule="evenodd" d="M14.5355 4.89958C14.4781 5.03272 14.4975 6.71827 14.4995 7.09141C14.4995 7.59325 14.7984 7.78277 15.0182 7.98964C15.2657 8.22264 15.4785 8.44946 15.7208 8.69181C16.1976 9.16857 16.6719 9.59839 17.1354 10.0871L21.3912 14.3023C21.8773 14.7889 22.3205 15.2628 22.8112 15.7345C23.29 16.1949 23.7368 16.6858 24.228 17.1275C24.4496 17.3267 25.6153 18.3954 25.6004 18.6278C25.5897 18.7953 24.6891 19.6383 24.5236 19.7855C23.737 20.4854 23.0238 21.2823 22.2878 22.0192C21.9015 22.406 21.5396 22.7518 21.1516 23.1393L16.9586 27.29C16.8656 27.3841 16.7767 27.5351 16.6006 27.5286C16.3615 27.5199 15.604 26.6729 15.4199 26.4889C15.0465 26.1156 14.6412 25.7465 14.2923 25.3601C13.1462 24.0911 11.1101 22.2088 9.80912 20.9038L8.13409 19.2157C7.33521 18.4179 7.27253 18.8443 9.23495 16.8843L10.4998 15.6375C10.6457 15.4928 10.762 15.3386 10.9076 15.194L13.8441 12.2984C14.0115 12.1306 14.1718 12.0746 14.2368 11.8086C13.7704 11.8294 13.2782 11.815 12.8089 11.815C11.2061 11.815 11.8595 11.6913 10.1361 13.358C9.17616 14.2864 8.26751 15.2259 7.29948 16.141L5.89611 17.5463C5.64849 17.7739 5.42028 18.0007 5.18036 18.2361C4.75548 18.653 4.915 18.6948 5.27444 19.0529L8.8368 22.5572C9.07066 22.7911 9.28318 23.0379 9.52245 23.2764L15.8738 29.5682C16.0655 29.7572 16.4686 30.2122 16.6281 30.1891C16.7747 30.1678 17.2408 29.6322 17.3556 29.5173L19.5017 27.4066C20.447 26.4586 21.3848 25.5633 22.3309 24.6164L27.2698 19.7218C27.5028 19.4879 27.7195 19.238 27.9555 19.0027C28.4878 18.4719 28.3866 18.6292 27.2598 17.5011C26.921 17.162 26.0825 16.3822 25.8287 16.0797C25.2742 15.4186 21.0159 11.3355 20.1837 10.4866L14.9128 5.20032C14.8025 5.085 14.6922 4.86808 14.5355 4.89958Z" fill="#FE7729"/>
<path fill-rule="evenodd" clip-rule="evenodd" d="M12.5339 18.6277C12.5784 18.3534 12.8361 18.2258 12.9849 18.0799C13.1641 17.9041 13.3247 17.7594 13.4888 17.562L15.5095 15.5387C15.68 15.3682 16.3727 14.5783 16.5981 14.577C16.8139 14.5757 17.4974 15.3536 17.6631 15.519C17.9605 15.8161 20.7102 18.5134 20.6959 18.6277L17.7082 21.6539C16.4394 22.922 16.812 22.9403 15.5694 21.6993C15.2179 21.3481 14.9048 21.025 14.5388 20.6866C14.2 20.3734 13.8551 20.0278 13.5269 19.6978L12.5339 18.6277ZM16.5977 11.8701C15.9617 12.3697 13.8449 14.5786 13.24 15.1849C12.6715 15.7546 12.108 16.2765 11.5385 16.8464C11.31 17.0749 9.90394 18.3742 9.87688 18.5528C9.84548 18.76 10.0812 18.9393 10.189 19.0336C10.9697 19.7167 12.3105 21.1531 13.1795 21.9614C13.4698 22.2315 13.7281 22.507 14.0108 22.7897L15.6781 24.4855C16.7335 25.5406 16.4531 25.5311 17.4862 24.4969L20.4146 21.5933C20.5946 21.4131 20.6836 21.3013 20.8293 21.1565C21.1248 20.8628 21.3977 20.6083 21.6919 20.3163C21.9411 20.0689 23.3174 18.8368 23.3171 18.5845C23.3169 18.4051 22.7043 17.8581 22.5475 17.7013L18.2952 13.5247C17.863 13.0928 17.0449 12.1349 16.5977 11.8701Z" fill="#FE7729"/>
</g>
<defs>
<clipPath id="clip0_313_1458">
<rect width="148" height="36" fill="white"/>
</clipPath>
</defs>
</svg>
