<svg xmlns="http://www.w3.org/2000/svg" version="1.1" xmlns:xlink="http://www.w3.org/1999/xlink" xmlns:svgjs="http://svgjs.dev/svgjs" width="100%" height="100%" viewBox="0 0 1000 600"><rect width="1000" height="600" x="0" y="0" fill="#ffffff"/><g><rect width="333.3333333333333" height="333.3333333333333" rx="13.333333333333334" ry="13.333333333333334" y="233.33682613627116" fill="#19362d" transform="matrix(0.5920955247446589,0,0,0.5920955247446588,0,63.159732268995)" x="211.11463928222656"/><path d="M373.9757610990501 347.83671128840905L381.5868312961437 365.3895143266824L349.8679693742847 475.00349180635584L329.9480870881115 475.00349180635584L288.251075721259 343.10255279260923Q286.9400779839606 338.914643354017 282.75216854536836 337.85856184341554L282.75216854536836 337.85856184341554L271.2081051363795 334.72673391542486L271.2081051363795 325.00350069712823L328.3457565203023 325.00350069712823L328.3457565203023 334.72673391542486L309.22703951803373 338.65972712732014L345.1338108784849 459.78135141216865L341.2008176665896 459.78135141216865L373.9757610990501 347.83671128840905ZM375.8330078935562 365.13459809998545L368.2219376964626 343.10255279260923Q366.65602373246725 338.914643354017 362.723030520572 337.85856184341554L362.723030520572 337.85856184341554L352.9997973022754 334.72673391542486L352.9997973022754 325.00350069712823L408.6079513260167 325.00350069712823L408.6079513260167 334.72673391542486L389.19790149323734 338.65972712732014L424.33992417359775 460.0362676388655L419.86068190449487 460.0362676388655L453.9466230742537 338.65972712732014L434.8279060719851 334.72673391542486L434.8279060719851 325.00350069712823L484.3544872588143 325.00350069712823L484.3544872588143 334.72673391542486L472.55550762312856 337.85856184341554Q470.47976120573935 338.36839429680936 469.0230970531856 339.5701422226663Q467.60284950444566 340.7354735447093 467.05660044723794 343.10255279260923L467.05660044723794 343.10255279260923L428.52783361218997 475.00349180635584L408.6079513260167 475.00349180635584L375.8330078935562 365.13459809998545Z " fill="#ffffff" transform="matrix(0.5920955247446589,0,0,0.5920955247446588,0,63.159732268995)"/><path d="M716.3192617771929 363.87611258983213L722.876467194366 378.998471494509L695.5495489247113 473.43477917724204L678.3878677611051 473.43477917724204L642.4644218153478 359.79746807197324Q641.3349510257868 356.18943638309804 637.7269193369116 355.27958491372954L637.7269193369116 355.27958491372954L627.7813015510558 352.5814046942229L627.7813015510558 344.20449633831265L677.0074034627528 344.20449633831265L677.0074034627528 352.5814046942229L660.5359544483226 355.96981706290563L691.4709044068525 460.3203683428957L688.0824920381697 460.3203683428957L716.3192617771929 363.87611258983213ZM717.9193453957375 378.77885217431657L711.3621399785643 359.79746807197324Q710.013049868811 356.18943638309804 706.6246375001282 355.27958491372954L706.6246375001282 355.27958491372954L698.247729144218 352.5814046942229L698.247729144218 344.20449633831265L746.1561151347606 344.20449633831265L746.1561151347606 352.5814046942229L729.4336726115391 355.96981706290563L759.7097646094917 460.53998766308814L755.8507394118253 460.53998766308814L785.2169799404094 355.96981706290563L768.7455309259792 352.5814046942229L768.7455309259792 344.20449633831265L811.4144274205031 344.20449633831265L811.4144274205031 352.5814046942229L801.2491903144547 355.27958491372954Q799.4608615643166 355.71882355411435 798.20589402036 356.7541717778785Q796.9823006650023 357.75814581304377 796.5116878360186 359.79746807197324L796.5116878360186 359.79746807197324L763.3177962983669 473.43477917724204L746.1561151347606 473.43477917724204L717.9193453957375 378.77885217431657ZM889.1282925800147 427.126476805244L889.1282925800147 427.126476805244Q889.1282925800147 414.4513046112825 886.8693510008927 405.3214157289984Q884.610409421771 396.1601526581153 879.1826747941587 391.0775341050911Q873.7863143551454 385.9949155520669 864.2799352096742 385.9949155520669L864.2799352096742 385.9949155520669Q852.3263693534877 385.9949155520669 846.5535186512875 395.15617862295005Q840.7806679490872 404.2860675052342 840.7806679490872 424.61654171733085L840.7806679490872 424.61654171733085Q840.7806679490872 437.2917139112924 842.9454869624124 446.42160279357654Q845.0789317871385 455.58286586445956 850.6321631691463 460.66548441748375Q856.1540203625553 465.74810297050794 865.6290253194276 465.74810297050794L865.6290253194276 465.74810297050794Q877.613965364213 465.74810297050794 883.3868160664133 456.58683989962486Q889.1282925800147 447.4569510173407 889.1282925800147 427.126476805244ZM821.360045206359 426.4362446560679L821.360045206359 426.4362446560679Q821.360045206359 409.0549441722692 827.4780119831473 397.97985559685236Q833.5646045713368 386.9047670214355 843.8553384317809 381.6966517140156Q854.1146981036259 376.5199105951947 866.5388767887961 376.5199105951947L866.5388767887961 376.5199105951947Q881.2219970530881 376.5199105951947 890.477382689768 382.6065031833842Q899.7641425150467 388.72446996017254 904.1565289188948 399.76818434699044Q908.5489153227428 410.8432729224073 908.5489153227428 425.52639318669935L908.5489153227428 425.52639318669935Q908.5489153227428 442.939067859097 902.4623227345534 453.76316292572255Q896.3757301463639 464.618632180947 886.2104930403156 469.7953732997679Q876.0452559342673 475.00348860718776 863.3700837403057 475.00348860718776L863.3700837403057 475.00348860718776Q848.6869634760137 475.00348860718776 839.4315778393338 468.91689601899833Q830.1761922026541 462.79892924220997 825.783805798806 451.9748341755844Q821.360045206359 441.11936492035994 821.360045206359 426.4362446560679ZM954.8572176947408 406.1057704439712L953.9787404139713 400.2387971759742Q956.8965399536703 394.811062548362 962.1987778268868 389.28920535495297Q967.5323898887023 383.7359739729451 974.4033371918647 380.1279422840699Q981.3056586836258 376.5199105951947 988.5217220613763 376.5199105951947L988.5217220613763 376.5199105951947Q991.0002829606905 376.5199105951947 994.2945727635765 377.1787685557719Q997.5574883778636 377.86900070494806 999.8164299569855 378.998471494509L999.8164299569855 378.998471494509Q1000.2870427859691 385.77529623187456 999.7223073911887 394.4659464737739Q999.1575719964083 403.15659671567323 997.5574883778636 410.4040342820225L997.5574883778636 410.4040342820225L989.2119542105523 410.4040342820225L986.7333933112382 397.5092427678686Q986.043161162062 394.811062548362 984.7881936181054 393.681591758801Q983.5646002627477 392.5521209692401 981.0860393634334 392.5521209692401L981.0860393634334 392.5521209692401Q974.5288339462603 392.5521209692401 967.5323898887023 395.8150365835272Q960.5045716425454 399.1093263864133 954.8572176947408 406.1057704439712L954.8572176947408 406.1057704439712ZM955.5474498439169 379.4377101348938L958.0260107432312 400.0191778557818L958.0260107432312 457.62218812338904Q958.0260107432312 462.35969060182515 962.7635132216673 462.79892924220997L962.7635132216673 462.79892924220997L979.2663364246964 464.618632180947L979.2663364246964 472.7445470280659L925.9615899951405 472.7445470280659L925.9615899951405 464.3990128607546L935.9072077809964 462.79892924220997Q940.4250909392401 462.1400712816328 940.4250909392401 457.62218812338904L940.4250909392401 457.62218812338904L940.4250909392401 396.3797719783077Q940.4250909392401 391.4226501796792 935.9072077809964 390.732418030503L935.9072077809964 390.732418030503L924.612499885387 389.3833279207497L924.612499885387 381.25741307363086Q931.1383311139614 379.2180908147014 938.7308847548986 378.0886200251405Q946.2920642072371 376.9591492355795 952.8492696244102 376.73952991538715L952.8492696244102 376.73952991538715L955.5474498439169 379.4377101348938ZM1058.3292916939613 472.7445470280659L1011.8013700017709 472.7445470280659L1011.8013700017709 464.3990128607546L1021.9666071078192 462.79892924220997Q1026.2648709458704 462.1400712816328 1026.2648709458704 457.62218812338904L1026.2648709458704 457.62218812338904L1026.2648709458704 343.98487701812024Q1026.2648709458704 339.68661318006895 1021.7469877876268 339.0277552194917L1021.7469877876268 339.0277552194917L1009.7620477428414 337.2080522807547L1009.7620477428414 329.740995394213Q1016.7584918003994 327.7330473238825 1025.355019476502 326.4780797799259Q1033.9201729640058 325.2231122359693 1041.167610530355 325.00349291577686L1041.167610530355 325.00349291577686L1043.8657907498616 327.48205381509115L1043.8657907498616 457.62218812338904Q1043.8657907498616 462.1400712816328 1048.3836739081053 462.79892924220997L1048.3836739081053 462.79892924220997L1058.3292916939613 464.3990128607546L1058.3292916939613 472.7445470280659ZM1113.6733603824468 472.7445470280659L1088.6053836919139 472.7445470280659Q1085.216971323231 472.7445470280659 1082.6129136695213 468.79139926460266Q1080.0088560158113 464.83825150113944 1076.6204436471285 458.50066540415867L1076.6204436471285 458.50066540415867L1067.3650580104486 440.89974560016753Q1064.4158842821507 435.69163029274773 1061.9373233828364 431.173747134504Q1059.4587624835222 426.6558639762603 1056.7605822640155 423.0478322873851L1056.7605822640155 423.0478322873851L1068.714148120202 411.5335050715835Q1072.1025604888848 415.8317689096348 1074.581121388199 419.53392316430666Q1077.0910564761123 423.2674516075775 1080.0088560158113 428.47556691499733L1080.0088560158113 428.47556691499733L1097.1705371794176 456.93195597421294Q1098.3000079689787 459.4105168735272 1099.900091587523 460.53998766308814Q1101.4688010174689 461.66945845264905 1103.288503956206 462.1400712816328L1103.288503956206 462.1400712816328L1113.6733603824468 464.3990128607546L1113.6733603824468 472.7445470280659ZM1092.2134153807892 392.1128823288553L1040.9479912101626 445.63724807860365L1039.8185204206015 434.122920862802L1084.3071198538626 385.55567691168216L1085.4365906434236 390.29317939011827L1064.4158842821507 386.68514770124307L1064.4158842821507 378.77885217431657L1109.155477224203 378.77885217431657L1109.155477224203 386.68514770124307L1099.4294787585395 388.9440892803649Q1096.7312985390329 389.6029472409421 1095.2567116748837 390.1676826357226Q1093.7821248107348 390.732418030503 1092.2134153807892 392.1128823288553L1092.2134153807892 392.1128823288553ZM1257.1161506566843 344.20449633831265L1257.1161506566843 352.5814046942229L1244.0017398223383 355.27958491372954Q1239.7348501728857 356.40905570329045 1239.7348501728857 360.48770022114934L1239.7348501728857 360.48770022114934L1239.7348501728857 456.71233665402053Q1239.7348501728857 461.01060049207183 1244.0017398223383 461.88907777284146L1244.0017398223383 461.88907777284146L1257.1161506566843 464.3990128607546L1257.1161506566843 472.7445470280659L1205.850726486058 472.7445470280659L1205.850726486058 464.3990128607546L1216.8944408728757 461.88907777284146Q1221.4123240311196 460.7596069832805 1221.4123240311196 456.71233665402053L1221.4123240311196 456.71233665402053L1221.4123240311196 412.19236303216064L1160.8915142238131 412.19236303216064L1160.8915142238131 456.93195597421294Q1160.8915142238131 461.01060049207183 1165.1897780618644 461.88907777284146L1165.1897780618644 461.88907777284146L1177.143343918051 464.3990128607546L1177.143343918051 472.7445470280659L1125.1876875982484 472.7445470280659L1125.1876875982484 464.3990128607546L1138.3020984325947 461.88907777284146Q1142.600362270646 461.23021981226424 1142.600362270646 456.71233665402053L1142.600362270646 456.71233665402053L1142.600362270646 360.48770022114934Q1142.600362270646 355.96981706290563 1138.3020984325947 355.27958491372954L1138.3020984325947 355.27958491372954L1125.1876875982484 352.5814046942229L1125.1876875982484 344.20449633831265L1177.143343918051 344.20449633831265L1177.143343918051 352.5814046942229L1164.9387845530732 355.27958491372954Q1160.8915142238131 356.40905570329045 1160.8915142238131 360.48770022114934L1160.8915142238131 360.48770022114934L1160.8915142238131 401.5878872857275L1221.4123240311196 401.5878872857275L1221.4123240311196 360.48770022114934Q1221.4123240311196 356.40905570329045 1217.1454343816672 355.27958491372954L1217.1454343816672 355.27958491372954L1205.5997329772667 352.5814046942229L1205.5997329772667 344.20449633831265L1257.1161506566843 344.20449633831265ZM1345.6541108828217 452.41407281596923L1347.6934331417508 457.84180744358144Q1341.826459873754 465.0578708213318 1333.9201643468275 469.7953732997679Q1326.013868819901 474.56424996680295 1314.4995416040995 474.56424996680295L1314.4995416040995 474.56424996680295Q1298.9065698704387 474.56424996680295 1292.0042483786774 466.18734161089276Q1285.1333010755152 457.84180744358144 1285.1333010755152 440.42913277118384L1285.1333010755152 440.42913277118384L1285.1333010755152 395.9405333379229Q1285.1333010755152 391.6422694998716 1280.8350372374641 390.5127987103107L1280.8350372374641 390.5127987103107L1270.6698001314155 388.9440892803649L1270.6698001314155 380.81817443324604Q1277.446624868781 378.77885217431657 1285.3529203957075 377.86900070494806Q1293.259215922634 376.9591492355795 1300.2556599801921 376.73952991538715L1300.2556599801921 376.73952991538715L1302.7342208795064 379.4377101348938L1302.7342208795064 437.2917139112924Q1302.7342208795064 450.59436987723217 1306.467749322777 456.71233665402053Q1310.201277766048 462.79892924220997 1320.805753512481 462.79892924220997L1320.805753512481 462.79892924220997Q1327.5825782498466 462.79892924220997 1333.9201643468275 460.3203683428957Q1340.2577504438084 457.84180744358144 1345.6541108828217 452.41407281596923L1345.6541108828217 452.41407281596923ZM1374.8007320912131 463.4891613913861L1374.8007320912131 471.1758375981202Q1371.8829325515142 472.0543148788898 1367.3650493932703 473.08966310265396Q1362.8471662350269 474.0936371378192 1358.7685217171677 474.0936371378192L1358.7685217171677 474.0936371378192Q1351.0818455104338 474.0936371378192 1347.4738138215587 469.4816314137788Q1343.8657821326833 464.83825150113944 1342.9559306633148 457.84180744358144L1342.9559306633148 457.84180744358144L1342.9559306633148 395.7209140177305Q1342.9559306633148 391.2030308594868 1338.6576668252635 390.5127987103107L1338.6576668252635 390.5127987103107L1326.4531074602858 388.72446996017254L1326.4531074602858 380.5671809244547Q1333.4809257064428 378.77885217431657 1342.171575948342 377.7435039505524Q1350.8622261902412 376.73952991538715 1358.0782895679915 376.73952991538715L1358.0782895679915 376.73952991538715L1360.588224655905 379.4377101348938L1360.588224655905 457.15157529440535Q1360.588224655905 460.1007490227033 1361.8118180112626 461.23021981226424Q1363.066785555219 462.35969060182515 1365.325727134341 462.57930992201756L1365.325727134341 462.57930992201756L1374.8007320912131 463.4891613913861ZM1395.821438452486 468.66590251020705L1395.821438452486 343.98487701812024Q1395.821438452486 339.68661318006895 1391.5231746144348 339.0277552194917L1391.5231746144348 339.0277552194917L1379.318615249457 337.2080522807547L1379.318615249457 329.740995394213Q1386.5660528158062 327.7330473238825 1395.0370837375133 326.4780797799259Q1403.5081146592202 325.2231122359693 1410.7241780369704 325.00349291577686L1410.7241780369704 325.00349291577686L1413.422358256477 327.48205381509115L1413.422358256477 461.66945845264905Q1416.371531984775 463.26954207119365 1420.4501765026341 464.49313542655136Q1424.497446831894 465.74810297050794 1429.9251814595061 465.74810297050794L1429.9251814595061 465.74810297050794Q1443.918069574622 465.74810297050794 1451.1655071409714 456.36722057943246Q1458.381570518722 446.98633818835697 1458.6011898389143 425.9970060156831L1458.6011898389143 425.9970060156831Q1459.0718026678978 405.1959189746027 1452.2949779305325 396.9445073730882Q1445.5181531931669 388.72446996017254 1434.003825977365 388.72446996017254L1434.003825977365 388.72446996017254Q1426.5367690908236 388.72446996017254 1420.6697958228265 391.54814693407485Q1414.8028225548294 394.37182390797716 1410.0339458877943 399.3289457066057L1410.0339458877943 399.3289457066057L1409.1554686070247 392.9913596096249Q1414.3322097258456 385.9949155520669 1422.1443826869754 381.25741307363086Q1429.9251814595061 376.5199105951947 1441.000270034923 376.5199105951947L1441.000270034923 376.5199105951947Q1451.3851264611637 376.5199105951947 1459.6365380626783 381.1319163192352Q1467.8879496641928 385.77529623187456 1472.8450714628214 395.7209140177305Q1477.80219326145 405.6665318035864 1477.80219326145 421.4791228574394L1477.80219326145 421.4791228574394Q1477.80219326145 446.07648671898846 1465.1583952560873 460.53998766308814Q1452.5145972507248 475.00348860718776 1428.5760913497527 475.00348860718776L1428.5760913497527 475.00348860718776Q1418.1912349235122 475.00348860718776 1409.1554686070247 472.7445470280659Q1400.1197022905374 470.48560544894406 1395.821438452486 468.66590251020705L1395.821438452486 468.66590251020705Z " fill="#19362d" transform="matrix(0.5920955247446589,0,0,0.5920955247446588,0,63.159732268995)"/></g></svg>